<svg xmlns="http://www.w3.org/2000/svg" width="56.966" height="56.966" viewBox="0 0 56.966 56.966">
  <path d="M19.831,3A16.851,16.851,0,0,0,3,19.831v23.3A16.851,16.851,0,0,0,19.831,59.966h23.3A16.851,16.851,0,0,0,59.966,43.135v-23.3A16.851,16.851,0,0,0,43.135,3Zm0,2.589h23.3A14.223,14.223,0,0,1,57.376,19.831v23.3A14.223,14.223,0,0,1,43.135,57.376h-23.3A14.223,14.223,0,0,1,5.589,43.135v-23.3A14.223,14.223,0,0,1,19.831,5.589Zm27.188,7.768a2.589,2.589,0,1,0,2.589,2.589A2.589,2.589,0,0,0,47.019,13.357ZM31.483,17.241A14.241,14.241,0,1,0,45.724,31.483,14.261,14.261,0,0,0,31.483,17.241Zm0,2.589A11.652,11.652,0,1,1,19.831,31.483,11.633,11.633,0,0,1,31.483,19.831Z" transform="translate(-3 -3)" fill="#fff"/>
</svg>
