<svg xmlns="http://www.w3.org/2000/svg" width="51.461" height="51.461" viewBox="0 0 51.461 51.461">
  <path d="M49.335,4H10.126A6.129,6.129,0,0,0,4,10.126V49.335a6.129,6.129,0,0,0,6.126,6.126H49.335a6.129,6.129,0,0,0,6.126-6.126V10.126A6.129,6.129,0,0,0,49.335,4ZM19.928,23.6v23.28H12.577V23.6Zm-7.352-6.776c0-1.715,1.47-3.026,3.676-3.026s3.59,1.311,3.676,3.026c0,1.715-1.372,3.1-3.676,3.1C14.047,19.928,12.577,18.544,12.577,16.829ZM46.884,46.884H39.533V34.632c0-2.451-1.225-4.9-4.288-4.95h-.1c-2.965,0-4.19,2.524-4.19,4.95V46.884H23.6V23.6h7.352v3.137A9.178,9.178,0,0,1,38.075,23.6c4.864,0,8.81,3.345,8.81,10.121Z" transform="translate(-4 -4)" fill="#fff"/>
</svg>
