<svg xmlns="http://www.w3.org/2000/svg" xmlns:xlink="http://www.w3.org/1999/xlink" width="61.975" height="59.496" viewBox="0 0 61.975 59.496">
  <defs>
    <clipPath>
      <rect width="61.975" height="59.496" fill="#fff" stroke="#707070" stroke-width="1"/>
    </clipPath>
  </defs>
  <g clip-path="url(#clip-path)">
    <path d="M12.675,3A9.685,9.685,0,0,0,3,12.675V80.4a9.685,9.685,0,0,0,9.675,9.675H80.4A9.685,9.685,0,0,0,90.079,80.4V12.675A9.685,9.685,0,0,0,80.4,3Zm0,9.675H80.4l.01,67.728H12.675ZM58.955,22.9A12.038,12.038,0,0,0,46.927,34.927c0,1.243.416,2.073.416,2.9A33.651,33.651,0,0,1,22.88,25.393a9.514,9.514,0,0,0-1.663,5.8c0,4.146,2.076,7.472,5.4,10.375a20.736,20.736,0,0,1-5.4-1.663,11.982,11.982,0,0,0,9.534,11.612,9.1,9.1,0,0,1-3.316.416,18.22,18.22,0,0,0-2.079-.416,12.09,12.09,0,0,0,11.2,8.287,26.82,26.82,0,0,1-14.929,4.979h-2.9a34.838,34.838,0,0,0,18.245,5.4c21.978,0,34.006-18.249,34.006-34.006V34.511a27.993,27.993,0,0,0,5.811-6.227,22.694,22.694,0,0,1-7.049,2.079,12.116,12.116,0,0,0,5.386-6.633,20.129,20.129,0,0,1-7.465,2.9A11.287,11.287,0,0,0,58.955,22.9Z" transform="translate(-16.441 -16.977)" fill="#fff"/>
  </g>
</svg>
