<svg xmlns="http://www.w3.org/2000/svg" width="45.374" height="45.379" viewBox="0 0 45.374 45.379">
  <g transform="translate(0 0)">
    <path d="M43.922,37.479q-5-5.009-10.012-10.006a.436.436,0,0,1-.1-.631,17.7,17.7,0,0,0,2.261-8.733,15.057,15.057,0,0,0-.16-2.443c-.08-.566-.176-1.131-.3-1.688A18.041,18.041,0,1,0,17.029,36.067a17.794,17.794,0,0,0,9.86-2.269.35.35,0,0,1,.512.073q2.422,2.441,4.858,4.866c1.785,1.784,3.55,3.586,5.361,5.346a4.565,4.565,0,1,0,6.3-6.6ZM18.062,32.2A14.142,14.142,0,1,1,32.183,18.1,14.132,14.132,0,0,1,18.062,32.2Z" transform="translate(0.011 0.001)" fill="#3d3d3d"/>
    <path d="M256.877,103.284h-.695c-.506,0-.508,0-.532-.488a8.512,8.512,0,0,0-1.857-4.976,8.722,8.722,0,0,0-6.726-3.444c-.227-.01-.315-.05-.307-.3q.031-.913,0-1.83c-.01-.266.073-.318.324-.309a11.385,11.385,0,0,1,11.024,10.991c.013.293-.065.386-.355.36S257.17,103.284,256.877,103.284Z" transform="translate(-228.701 -85.208)" fill="#3d3d3d"/>
  </g>
</svg>
